<svg xmlns="http://www.w3.org/2000/svg" viewBox="0 0 512 512" role="img" aria-label="L'Élite Gastro Suite">
  <defs>
    <radialGradient id="bg-glow" cx="50%" cy="42%" r="60%">
      <stop offset="0%" stop-color="#1A140A" />
      <stop offset="55%" stop-color="#080808" />
      <stop offset="100%" stop-color="#050505" />
    </radialGradient>
    <radialGradient id="gold-dot" cx="50%" cy="50%" r="50%">
      <stop offset="0%" stop-color="#F7DE9B" />
      <stop offset="65%" stop-color="#E5C07B" />
      <stop offset="100%" stop-color="rgba(229,192,123,0)" />
    </radialGradient>
    <filter id="gold-blur" x="-50%" y="-50%" width="200%" height="200%">
      <feGaussianBlur stdDeviation="2.2" />
    </filter>
  </defs>

  <rect width="512" height="512" fill="url(#bg-glow)" />

  <g opacity="0.8">
    <circle cx="48" cy="60" r="2.1" fill="url(#gold-dot)" />
    <circle cx="96" cy="120" r="1.6" fill="url(#gold-dot)" />
    <circle cx="160" cy="90" r="1.9" fill="url(#gold-dot)" />
    <circle cx="240" cy="72" r="2.4" fill="url(#gold-dot)" />
    <circle cx="320" cy="94" r="1.7" fill="url(#gold-dot)" />
    <circle cx="388" cy="130" r="2.1" fill="url(#gold-dot)" />
    <circle cx="450" cy="78" r="1.6" fill="url(#gold-dot)" />
    <circle cx="74" cy="210" r="1.8" fill="url(#gold-dot)" />
    <circle cx="132" cy="186" r="2.2" fill="url(#gold-dot)" />
    <circle cx="380" cy="200" r="2.3" fill="url(#gold-dot)" />
    <circle cx="442" cy="224" r="1.8" fill="url(#gold-dot)" />
    <circle cx="60" cy="328" r="1.7" fill="url(#gold-dot)" />
    <circle cx="115" cy="352" r="2.2" fill="url(#gold-dot)" />
    <circle cx="184" cy="386" r="1.9" fill="url(#gold-dot)" />
    <circle cx="258" cy="360" r="2.4" fill="url(#gold-dot)" />
    <circle cx="342" cy="390" r="1.9" fill="url(#gold-dot)" />
    <circle cx="410" cy="346" r="2.1" fill="url(#gold-dot)" />
    <circle cx="466" cy="308" r="1.7" fill="url(#gold-dot)" />
    <circle cx="80" cy="454" r="2.2" fill="url(#gold-dot)" />
    <circle cx="424" cy="448" r="2.2" fill="url(#gold-dot)" />
  </g>

  <ellipse cx="256" cy="220" rx="135" ry="92" fill="#E5C07B" opacity="0.08" filter="url(#gold-blur)" />

  <text
    x="256"
    y="256"
    text-anchor="middle"
    fill="#F8F8F8"
    font-family="'Cormorant Garamond','Times New Roman',serif"
    font-size="96"
    font-weight="600"
    letter-spacing="1.5"
  >
    L'Élite
  </text>

  <line x1="96" y1="320" x2="188" y2="320" stroke="#E5C07B" stroke-opacity="0.55" stroke-width="2" />
  <line x1="324" y1="320" x2="416" y2="320" stroke="#E5C07B" stroke-opacity="0.55" stroke-width="2" />

  <text
    x="256"
    y="328"
    text-anchor="middle"
    fill="#E5C07B"
    font-family="'Manrope','Arial',sans-serif"
    font-size="22"
    font-weight="700"
    letter-spacing="8"
  >
    GASTRO SUITE
  </text>
</svg>
